<?xml version="1.0" encoding="iso-8859-1"?>
<!-- Generator: Adobe Illustrator 19.0.0, SVG Export Plug-In . SVG Version: 6.00 Build 0)  -->
<svg xmlns="http://www.w3.org/2000/svg" xmlns:xlink="http://www.w3.org/1999/xlink" version="1.1" id="Layer_1" x="0px" y="0px" viewBox="0 0 512 512" style="enable-background:new 0 0 512 512;" xml:space="preserve" width="512px" height="512px">
<g>
	<g>
		<circle cx="128.29" cy="228.006" r="11.998" fill="#ff0048"/>
	</g>
</g>
<g>
	<g>
		<circle cx="383.717" cy="228.006" r="11.998" fill="#ff0048"/>
	</g>
</g>
<g>
	<g>
		<path d="M377.48,319.072c-16.75,0-30.378,13.627-30.378,30.377v55.667c0,16.75,13.628,30.378,30.378,30.378    c16.75,0,30.377-13.627,30.377-30.378V349.45C407.857,332.699,394.23,319.072,377.48,319.072z M391.391,405.117    c0,7.671-6.24,13.912-13.911,13.912s-13.912-6.242-13.912-13.912V349.45c0-7.671,6.242-13.911,13.912-13.911    s13.911,6.241,13.911,13.911V405.117z" fill="#ff0048"/>
	</g>
</g>
<g>
	<g>
		<path d="M296.492,319.072c-16.75,0-30.377,13.627-30.377,30.377v55.667c0,16.75,13.627,30.378,30.377,30.378    c16.75,0,30.377-13.627,30.377-30.378V349.45C326.87,332.699,313.242,319.072,296.492,319.072z M310.404,405.117    c0,7.671-6.241,13.912-13.911,13.912c-7.671,0-13.911-6.242-13.911-13.912V349.45c0-7.671,6.241-13.911,13.911-13.911    c7.671,0,13.911,6.241,13.911,13.911V405.117z" fill="#ff0048"/>
	</g>
</g>
<g>
	<g>
		<path d="M215.506,319.072c-16.75,0-30.377,13.627-30.377,30.377v55.667c0,16.75,13.627,30.378,30.377,30.378    c16.75,0,30.377-13.627,30.377-30.378V349.45C245.883,332.699,232.256,319.072,215.506,319.072z M229.419,405.117    c0,7.671-6.241,13.912-13.911,13.912s-13.911-6.242-13.911-13.912V349.45c0-7.671,6.24-13.911,13.911-13.911    s13.911,6.241,13.911,13.911V405.117z" fill="#ff0048"/>
	</g>
</g>
<g>
	<g>
		<path d="M134.52,319.072c-16.75,0-30.377,13.627-30.377,30.377v55.667c0,16.75,13.627,30.378,30.377,30.378    c16.75,0,30.378-13.627,30.378-30.378V349.45C164.899,332.699,151.27,319.072,134.52,319.072z M148.433,405.117    c0,7.671-6.242,13.912-13.912,13.912c-7.671,0-13.911-6.242-13.911-13.912V349.45c0-7.671,6.24-13.911,13.911-13.911    s13.912,6.241,13.912,13.911V405.117z" fill="#ff0048"/>
	</g>
</g>
<g>
	<g>
		<path d="M466.388,210.323h-45.344c0,0-54.72-145.566-54.751-145.647c-7.86-20.909-32.137-31.896-53.016-24.047    c-21.246,7.987-32.035,31.77-24.048,53.016l43.86,116.677h-95.552c-4.547,0-8.233,3.686-8.233,8.233    c0,4.547,3.686,8.233,8.233,8.233h101.742c0,0,6.43,17.106,6.432,17.108c5.929,15.772,21.694,26.688,38.539,26.688    c6.721,0,13.48-1.72,19.406-4.885c14.343-7.661,22.669-23.055,21.666-38.911h41.065c16.072,0,29.147,13.075,29.147,29.146    s-13.075,29.146-29.147,29.146H45.612c-16.072-0.001-29.146-13.076-29.146-29.146c0-16.071,13.075-29.146,29.146-29.146h41.065    c-1.003,15.853,7.321,31.245,21.66,38.907c16.366,8.745,37.579,5.093,49.998-8.741c4.515-5.03,7.152-10.922,9.501-17.172    l4.885-12.995h31.887c4.547,0,8.233-3.686,8.233-8.233c0-4.547-3.686-8.233-8.233-8.233h-25.697L222.77,93.646    c7.987-21.246-2.8-45.029-24.048-53.016c-21.009-7.898-45.146,3.108-53.016,24.047l-13.357,35.532    c-1.6,4.256,0.553,9.003,4.809,10.604c4.254,1.599,9.003-0.553,10.604-4.809c0,0,13.342-35.491,13.357-35.532    c4.737-12.601,19.19-19.172,31.808-14.429c12.607,4.738,19.176,19.183,14.429,31.811l-56.482,150.251    c-0.3,0.797-0.636,1.569-1.007,2.315c-5.563,11.197-18.851,16.604-30.803,12.113c-0.39-0.147-0.773-0.302-1.15-0.467    c-11.699-5.09-17.72-18.629-13.467-30.791c0.005-0.015,0.008-0.032,0.013-0.047c0.059-0.168,0.112-0.337,0.176-0.505    l30.401-80.872c1.6-4.256-0.553-9.003-4.809-10.604c-4.256-1.599-9.003,0.552-10.604,4.809l-28.67,76.267H45.612    C20.461,210.323,0,230.785,0,255.935c0,25.038,20.28,45.421,45.275,45.603l26.303,125.66    c5.669,27.081,29.864,46.735,57.531,46.735h253.779c27.667,0,51.863-19.656,57.531-46.735l11.284-53.908    c0.932-4.45-1.921-8.814-6.371-9.744c-4.447-0.933-8.813,1.921-9.744,6.371l-11.284,53.908    c-4.08,19.494-21.498,33.643-41.415,33.643H129.11c-19.917,0-37.334-14.15-41.416-33.643L62.1,301.546h387.8l-7.504,35.852    c-0.932,4.45,1.921,8.813,6.371,9.744c4.45,0.932,8.814-1.92,9.744-6.371l8.212-39.234C491.72,301.355,512,280.972,512,255.934    C512,230.785,491.539,210.323,466.388,210.323z M394.084,252.065c-6.523,2.823-14.275,2.661-20.659-0.471    c-0.021-0.01-0.043-0.021-0.064-0.031c-4.927-2.434-9.005-6.479-11.425-11.564c-0.046-0.098-0.092-0.196-0.137-0.296    c-0.24-0.522-0.468-1.052-0.674-1.6l-6.498-17.288L304.642,87.852c-4.793-12.748,1.681-27.017,14.428-31.811    c12.571-4.725,27.077,1.84,31.81,14.429l56.482,150.251c0.063,0.167,0.115,0.336,0.175,0.504c0.005,0.016,0.009,0.033,0.014,0.048    C411.804,233.437,405.783,246.976,394.084,252.065z" fill="#ff0048"/>
	</g>
</g>
<g>
</g>
<g>
</g>
<g>
</g>
<g>
</g>
<g>
</g>
<g>
</g>
<g>
</g>
<g>
</g>
<g>
</g>
<g>
</g>
<g>
</g>
<g>
</g>
<g>
</g>
<g>
</g>
<g>
</g>
</svg>
