<?xml version="1.0" encoding="iso-8859-1"?>
<!-- Generator: Adobe Illustrator 19.0.0, SVG Export Plug-In . SVG Version: 6.00 Build 0)  -->
<svg xmlns="http://www.w3.org/2000/svg" xmlns:xlink="http://www.w3.org/1999/xlink" version="1.1" id="Layer_1" x="0px" y="0px" viewBox="0 0 512 512" style="enable-background:new 0 0 512 512;" xml:space="preserve" width="512px" height="512px">
<g>
	<g>
		<path d="M435.438,62.154H164.01c-5.047,0-9.138,4.091-9.138,9.138c0,5.047,4.091,9.138,9.138,9.138h271.428    c8.625,0,15.643,7.017,15.643,15.642v230.954c0,8.625-7.017,15.642-15.643,15.642h-50.866c-5.047,0-9.138,4.091-9.138,9.138    c0,5.047,4.091,9.138,9.138,9.138h50.866c18.703,0,33.919-15.215,33.919-33.918V96.072    C469.357,77.369,454.141,62.154,435.438,62.154z" fill="#ff0048"/>
	</g>
</g>
<g>
	<g>
		<path d="M348.02,342.668H76.563c-8.625,0-15.643-7.017-15.643-15.642V96.072c0-8.625,7.018-15.642,15.643-15.642h50.894    c5.047,0,9.138-4.091,9.138-9.138c0-5.047-4.091-9.138-9.138-9.138H76.563c-18.704,0-33.919,15.215-33.919,33.918v230.954    c0,18.703,15.215,33.918,33.919,33.918H348.02c5.047,0,9.138-4.091,9.138-9.138C357.158,346.759,353.066,342.668,348.02,342.668z" fill="#ff0048"/>
	</g>
</g>
<g>
	<g>
		<path d="M435.438,19.51H76.563C34.346,19.51,0,53.855,0,96.072v230.953c0,42.218,34.346,76.563,76.563,76.563h106.974v28.905    h-22.152c-16.541,0-29.998,13.457-29.998,29.998s13.457,29.998,29.998,29.998h189.23c16.541,0,29.998-13.457,29.998-29.998    s-13.457-29.998-29.998-29.998h-22.152v-28.905h106.975c42.217,0,76.562-34.346,76.562-76.563V96.072    C512,53.855,477.654,19.51,435.438,19.51z M350.615,450.77c6.464,0,11.722,5.259,11.722,11.722s-5.259,11.722-11.722,11.722    h-189.23c-6.464,0-11.722-5.259-11.722-11.722s5.259-11.722,11.722-11.722h31.29h126.65H350.615z M201.813,432.493v-28.905    h108.374v28.905H201.813z M493.725,327.025c0,32.139-26.147,58.287-58.286,58.287H319.326H192.675H76.563    c-32.14,0-58.287-26.147-58.287-58.287V96.072c0-32.139,26.147-58.286,58.287-58.286h358.875    c32.139,0,58.286,26.147,58.286,58.286V327.025z" fill="#ff0048"/>
	</g>
</g>
<g>
</g>
<g>
</g>
<g>
</g>
<g>
</g>
<g>
</g>
<g>
</g>
<g>
</g>
<g>
</g>
<g>
</g>
<g>
</g>
<g>
</g>
<g>
</g>
<g>
</g>
<g>
</g>
<g>
</g>
</svg>
